<svg width="126" height="74" viewBox="0 0 126 74" fill="none" xmlns="http://www.w3.org/2000/svg">
<path d="M125.67 71.4402C121.11 72.6002 118.29 71.4902 115.76 67.6902C110.08 59.1802 103.81 51.0602 97.76 42.7902C96.98 41.7202 96.17 40.6702 95.16 39.3402C88 49.0002 80.85 58.2002 74.14 67.7702C71.74 71.1902 69.22 72.6802 64.74 71.4702L91.66 35.3402L66.6 2.71016C70.91 1.87016 73.89 2.30016 76.53 6.16016C82.36 14.6802 88.79 22.7902 95.2 31.3702C101.65 22.8202 108 14.7002 114 6.26016C116.41 2.84016 119 1.54016 123.33 2.80016C120.05 7.15016 116.84 11.4302 113.61 15.6802C109.25 21.4102 104.97 27.2102 100.45 32.8202C98.84 34.8202 99.1 36.1202 100.54 38.0102C108.9 49.0002 117.16 60.1002 125.67 71.4402ZM0.330049 34.7402C1.05005 31.1302 1.53005 27.4502 2.53005 23.9102C8.53005 2.48016 33.13 -6.42984 50.03 6.85016C59.93 14.6402 62.3901 25.6202 61.9001 38.0002H6.10005C5.26005 60.2102 21.2501 73.6202 41.6301 66.7802C48.7801 64.3802 52.99 58.7802 55.1 51.7802C56.17 48.2702 57.9401 47.7202 61.2401 48.7202C59.5501 57.4802 55.7201 64.8002 47.7201 69.3802C35.7201 76.2402 18.59 74.0202 9.58005 64.4902C4.26005 58.8902 2.00005 51.9202 1.00005 44.3902C0.850049 43.1902 0.540049 42.0102 0.300049 40.8202C0.320049 38.7935 0.330049 36.7668 0.330049 34.7402ZM6.20005 33.2502H56.6301C56.3001 17.1902 46.3001 5.78016 32.6301 5.68016C17.6301 5.56016 6.85005 16.7002 6.20005 33.2502Z" fill="white"/>
</svg>
