<svg width="459" height="458" viewBox="0 0 459 458" fill="none" xmlns="http://www.w3.org/2000/svg">
<path fill-rule="evenodd" clip-rule="evenodd" d="M213.001 0.46332C157.013 4.88232 106.568 27.9333 67.4819 66.9583C48.7859 85.6263 35.8209 103.666 23.8629 127.654C16.7419 141.939 16.1109 144.343 18.8389 146.811C23.1559 150.718 24.9879 148.985 32.5619 133.825C36.4449 126.052 43.0349 114.577 47.2069 108.325C54.8609 96.8533 72.4069 75.4583 74.1609 75.4583C74.6829 75.4583 79.2469 76.6263 84.3049 78.0543C89.3629 79.4823 99.2829 81.9273 106.351 83.4883C113.418 85.0483 119.405 86.5283 119.654 86.7773C119.903 87.0263 118.124 91.8943 115.7 97.5943C109.142 113.02 101.001 138.633 101.001 143.839C101.001 145.48 101.906 147.005 103.501 148.05C105.772 149.538 106.218 149.546 108.375 148.132C110.133 146.981 111.33 144.416 112.981 138.267C118.014 119.521 129.947 88.4583 132.115 88.4583C132.609 88.4583 137.399 89.1103 142.758 89.9063C158.796 92.2903 184.293 94.4373 204.751 95.1263L224.001 95.7753V121.093V146.412L226.452 148.018C229.548 150.046 232.807 149.099 234.058 145.807C234.577 144.444 235.001 132.628 235.001 119.551V95.7753L254.251 95.1283C274.399 94.4503 297.531 92.5033 315.645 89.9613C321.532 89.1343 326.525 88.4583 326.74 88.4583C328.579 88.4583 341.525 122.6 345.51 137.958C346.508 141.808 347.997 145.745 348.818 146.708C350.966 149.225 354.668 148.896 356.552 146.021C358.041 143.747 357.97 142.924 355.483 133.771C352.435 122.553 345.501 102.988 341.087 93.1503C339.436 89.4693 338.349 86.4583 338.672 86.4583C340.309 86.4583 363.874 80.9083 373.478 78.2603L384.456 75.2353L390.782 81.9123C404.111 95.9813 418.551 117.626 427.725 137.29C430.206 142.607 432.745 147.289 433.368 147.693C435.663 149.181 438.984 148.413 440.543 146.034C442.047 143.739 441.933 143.147 438.43 134.992C436.394 130.253 431.492 120.83 427.537 114.052C390.957 51.3703 327.418 9.69232 256.001 1.53532C242.665 0.0123209 224.467 -0.44168 213.001 0.46332ZM223.763 84.9823C223.019 85.5913 180.316 83.3553 166.48 81.9823C150.301 80.3763 137.881 78.6713 137.169 77.9593C136.447 77.2373 150.206 57.0303 156.857 49.0433C173.524 29.0303 197.713 14.1713 217.692 11.6753L223.501 10.9493L223.763 47.8583C223.908 68.1583 223.908 84.8633 223.763 84.9823ZM251.642 13.9823C259.115 16.1173 273.492 23.6403 281.103 29.3993C291.573 37.3233 305.185 52.3173 313.994 65.6323C318.411 72.3073 321.852 77.9413 321.64 78.1523C320.073 79.7193 272.452 83.9493 246.751 84.8033L235.001 85.1943V47.9773V10.7613L240.751 11.6383C243.914 12.1203 248.814 13.1753 251.642 13.9823ZM173.501 19.0073C157.203 31.1083 140.347 50.6543 129.345 70.2083C127.411 73.6463 125.704 76.4583 125.552 76.4583C125.4 76.4583 119.81 75.3453 113.128 73.9843C97.5299 70.8073 84.0009 67.2563 84.0009 66.3383C84.0009 65.1103 99.0179 53.4403 109.546 46.4883C126.593 35.2303 145.446 26.2673 164.501 20.3613C174.834 17.1583 176.284 16.9403 173.501 19.0073ZM300.844 22.6423C322.19 29.9583 341.909 40.4313 359.62 53.8623C371.843 63.1313 375.556 66.2543 374.962 66.7693C373.885 67.7043 336.469 76.4583 333.553 76.4583C333.324 76.4583 330.969 72.8123 328.319 68.3573C318.052 51.0953 302.124 32.4823 287.501 20.6623C283.519 17.4433 283.514 17.4313 286.501 18.0923C288.151 18.4563 294.605 20.5043 300.844 22.6423ZM6.31593 160.922C-0.200068 163.756 0.000932579 161.413 0.000932579 234.458C0.000932579 307.797 -0.229067 305.211 6.53493 308.037C9.40493 309.236 27.2029 309.458 120.469 309.458C229.668 309.458 231.025 309.434 233.001 307.458C235.408 305.051 235.502 303.618 233.444 300.681L231.888 298.458H121.444H11.0009V234.458V170.458H229.501H448.001V234.458V298.458H391.072C329.094 298.458 331.001 298.283 331.001 303.973C331.001 309.505 330.47 309.458 392.322 309.458C442.046 309.458 449.617 309.26 452.523 307.881C459.183 304.72 459.001 306.784 459.001 234.458C459.001 162.132 459.183 164.196 452.523 161.035C449.526 159.613 427.539 159.462 229.35 159.497C44.2759 159.53 8.99693 159.755 6.31593 160.922ZM385.572 183.029C384.186 184.416 384.001 190.467 384.001 234.458C384.001 288.698 383.872 287.458 389.516 287.458C394.977 287.458 395.001 287.227 395.001 234.458C395.001 192.13 394.801 185.618 393.444 183.681C391.629 181.088 387.828 180.774 385.572 183.029ZM44.5719 204.029C43.7079 204.894 43.0009 206.465 43.0009 207.522C43.0009 210.172 64.9189 264.783 66.3479 265.693C68.2899 266.93 71.6869 266.541 73.0259 264.927C73.7249 264.085 77.9869 254.11 82.4969 242.759L90.6979 222.121L98.9789 243.04C103.534 254.545 107.707 264.521 108.253 265.208C108.799 265.896 110.486 266.458 112.001 266.458C113.516 266.458 115.2 265.896 115.743 265.208C116.286 264.521 121.77 251.271 127.931 235.765C137.262 212.278 138.95 207.23 138.038 205.527C136.429 202.521 132.231 201.759 130.044 204.077C129.068 205.111 124.75 214.845 120.45 225.708C116.15 236.571 112.344 245.458 111.992 245.458C111.641 245.458 107.603 236.029 103.02 224.505C98.4359 212.98 94.0449 203.305 93.2619 203.005C90.7359 202.035 88.2769 202.42 86.9759 203.989C86.2769 204.831 82.0199 214.794 77.5149 226.13L69.3259 246.741L61.0349 226.043C56.4749 214.658 52.0949 204.695 51.3009 203.901C49.4119 202.012 46.5349 202.067 44.5719 204.029ZM152.24 203.124C151.546 203.404 150.504 204.519 149.924 205.602C149.065 207.206 150.949 212.805 160.071 235.765C166.232 251.271 171.716 264.521 172.259 265.208C172.802 265.896 174.486 266.458 176.001 266.458C177.516 266.458 179.203 265.896 179.749 265.208C180.295 264.521 184.468 254.545 189.023 243.04L197.304 222.121L205.505 242.759C210.015 254.11 214.277 264.085 214.976 264.927C216.315 266.541 219.712 266.93 221.654 265.693C223.083 264.783 245.001 210.172 245.001 207.522C245.001 203.299 239.641 200.961 236.701 203.901C235.907 204.695 231.527 214.658 226.967 226.043L218.676 246.741L210.487 226.13C205.982 214.794 201.725 204.831 201.026 203.989C199.725 202.42 197.266 202.035 194.74 203.005C193.957 203.305 189.566 212.98 184.982 224.505C180.399 236.029 176.361 245.458 176.01 245.458C175.658 245.458 171.846 236.571 167.539 225.708C163.231 214.845 159.028 205.171 158.199 204.208C156.715 202.486 154.723 202.124 152.24 203.124ZM257.656 204.287C256.746 205.293 256.002 206.755 256.003 207.537C256.006 209.519 277.472 263.116 279 264.957C280.28 266.499 282.75 266.875 285.262 265.911C286.045 265.611 290.436 255.936 295.02 244.411C299.603 232.887 303.645 223.458 304.001 223.458C304.357 223.458 308.399 232.887 312.982 244.411C317.566 255.936 321.957 265.611 322.74 265.911C325.252 266.875 327.722 266.499 329.002 264.957C330.612 263.016 351.996 209.464 351.999 207.363C352.004 203.48 345.499 200.948 343.062 203.884C342.411 204.669 338.144 214.632 333.581 226.026L325.283 246.741L317.012 225.849C312.464 214.359 308.295 204.396 307.749 203.708C307.203 203.021 305.516 202.458 304.001 202.458C302.486 202.458 300.799 203.021 300.253 203.708C299.707 204.396 295.538 214.359 290.99 225.849L282.719 246.741L274.421 226.026C269.858 214.632 265.591 204.669 264.94 203.884C263.294 201.901 259.632 202.103 257.656 204.287ZM352.882 254.465C351.992 254.985 350.714 256.738 350.042 258.36C347.505 264.484 353.985 270.95 360.114 268.411C363.573 266.978 365.001 264.725 365.001 260.698C365.001 255.237 357.853 251.56 352.882 254.465ZM250.401 275.858C246.32 279.939 246.476 275.549 248.523 328.547C249.878 363.634 250.245 368.232 251.869 370.458C256.775 377.18 262.447 376.747 272.146 368.91C275.992 365.803 279.271 363.418 279.435 363.61C279.598 363.801 284.584 372.418 290.514 382.759C304.859 407.773 305.629 408.16 322.351 398.74C341.653 387.867 341.905 386.664 329.435 364.905C324.723 356.684 319.795 348.115 318.483 345.862L316.097 341.765L324.509 338.57C334.189 334.893 337.001 332.139 337.001 326.339C337.001 323.523 336.263 321.696 334.251 319.535C332.739 317.909 315.594 306.652 296.151 294.519C256.533 269.794 256.485 269.774 250.401 275.858ZM293.344 305.436C311.275 316.698 325.621 326.233 325.223 326.625C324.826 327.016 320.676 328.74 316.001 330.456C305.615 334.268 303.001 335.897 303.001 338.555C303.001 340.387 306.988 347.647 323.087 375.131L327.874 383.305L318.754 388.49C310.087 393.418 309.566 393.583 308.267 391.817C307.515 390.795 301.913 381.279 295.818 370.672C285.695 353.054 283.036 349.458 280.133 349.458C279.584 349.458 275.28 352.608 270.57 356.458C265.861 360.308 261.637 363.458 261.185 363.458C260.733 363.458 259.824 347.821 259.167 328.708C257.632 284.105 257.636 283.146 259.371 284.158C260.125 284.598 275.412 294.173 293.344 305.436ZM226.224 321.015C224.054 322.534 224.001 323.044 224.001 342.381V362.191L207.251 362.863C185.86 363.722 169.776 365.028 148.633 367.623C134.481 369.359 131.625 369.473 130.898 368.325C128.797 365.01 120.755 344.698 117.291 333.959C114.35 324.837 112.997 321.974 111.251 321.171C107.738 319.557 104.001 321.69 104.001 325.311C104.001 328.76 110.024 346.884 115.953 361.273C118.291 366.947 120.046 371.703 119.852 371.843C119.659 371.982 113.876 373.291 107.001 374.75C100.126 376.209 89.8429 378.653 84.1489 380.181L73.7969 382.958L68.3609 376.958C56.0669 363.387 41.7299 342.769 34.1609 327.775C32.3329 324.153 30.1919 321.336 28.9749 320.95C26.1539 320.054 22.0009 322.915 22.0009 325.754C22.0009 328.559 32.3379 347.29 39.7739 357.958C63.1859 391.548 92.4869 416.835 128.501 434.529C145.429 442.846 155.355 446.552 172.551 450.976C192.898 456.211 206.557 457.867 229.501 457.881C251.224 457.895 264.325 456.412 282.906 451.837C328.088 440.711 371.324 414.828 400.304 381.556C414.951 364.739 426.202 348.326 434.073 332.295C437.24 325.845 437.29 325.549 435.65 323.045C433.669 320.022 430.036 319.636 427.767 322.208C426.918 323.17 424.647 327.108 422.72 330.958C415.571 345.243 397.339 370.327 387.189 379.841L384.113 382.725L370.413 379.133C355.635 375.259 353.565 375.362 352.394 380.027C351.395 384.007 354.124 385.939 364.273 388.434C369.349 389.681 373.855 391.024 374.288 391.417C375.308 392.344 362.365 402.69 349.001 411.63C331.769 423.157 304.635 435.353 286.001 439.945C283.591 440.539 283.608 440.479 286.485 438.26C300.659 427.325 304.663 422.334 302.297 418.553C300.051 414.962 296.27 416.048 288.913 422.396C274.485 434.844 261.584 441.91 246.819 445.45C242.244 446.547 237.713 447.447 236.751 447.451C235.103 447.458 235.001 443.842 235.001 385.458C235.001 324.791 234.958 323.415 233.001 321.458C230.594 319.051 229.161 318.957 226.224 321.015ZM224.001 410.458C224.001 439.401 223.729 447.454 222.751 447.441C219.874 447.401 207.37 444.366 202.361 442.491C180.237 434.214 159.032 415.242 142.528 388.957L136.877 379.958L140.689 379.308C156.085 376.681 191.326 373.81 210.751 373.601L224.001 373.458V410.458ZM131.017 391.208C141.976 409.216 156.202 425.969 168.764 435.661C171.672 437.905 173.87 439.923 173.647 440.145C173.424 440.368 167.675 438.714 160.872 436.469C145.947 431.546 121.816 419.859 109.501 411.589C96.6259 402.944 83.6339 392.419 84.6409 391.45C85.1139 390.995 91.1259 389.265 98.0009 387.607C126.847 380.648 124.43 380.384 131.017 391.208Z" fill="white"/>
</svg>
