<svg width="128" height="128" viewBox="0 0 128 128" fill="none" xmlns="http://www.w3.org/2000/svg">
<path d="M16.2189 15.7621C16.0494 15.7651 15.8827 15.8063 15.7313 15.8826C15.5799 15.9588 15.4476 16.0682 15.3442 16.2026C15.2408 16.337 15.1691 16.493 15.1342 16.6589C15.0994 16.8248 15.1023 16.9965 15.1429 17.1611L39.5369 115.903C39.5843 116.096 39.6815 116.272 39.8189 116.415C39.9562 116.558 40.1288 116.663 40.3193 116.718C40.5097 116.773 40.7114 116.777 40.9039 116.73C41.0964 116.682 41.273 116.585 41.4159 116.447L114.802 45.8571C114.945 45.7197 115.049 45.547 115.104 45.3565C115.159 45.166 115.163 44.9643 115.116 44.7718C115.068 44.5793 114.97 44.4027 114.833 44.2599C114.695 44.1171 114.522 44.013 114.332 43.9581L16.5499 15.8061C16.4424 15.7751 16.3308 15.7603 16.2189 15.7621ZM17.8029 18.5161L111.827 45.5861L41.2609 113.463L17.8029 18.5161Z" fill="white"/>
<path d="M65.1368 29.8401C64.9882 29.8369 64.8404 29.8631 64.7019 29.9171C64.5634 29.9712 64.4369 30.0521 64.3298 30.1551L27.6538 65.4601C27.5111 65.5976 27.407 65.7703 27.3522 65.9607C27.2973 66.1512 27.2936 66.3527 27.3413 66.5451C27.3891 66.7374 27.4866 66.9138 27.6241 67.0566C27.7617 67.1993 27.9343 67.3033 28.1248 67.3581L76.9838 81.4401C77.1741 81.495 77.3755 81.4988 77.5678 81.4513C77.76 81.4037 77.9364 81.3064 78.0792 81.1691C78.2219 81.0318 78.3261 80.8593 78.3811 80.6691C78.4362 80.4788 78.4402 80.2774 78.3928 80.0851L66.2098 30.6981C66.1502 30.457 66.0128 30.2422 65.8188 30.0871C65.6248 29.932 65.3851 29.8452 65.1368 29.8401ZM64.4858 33.1401L75.7338 78.7301L30.6298 65.7301L64.4858 33.1401Z" fill="white"/>
<path d="M46.914 47.3131C46.7445 47.3162 46.5778 47.3573 46.4264 47.4336C46.2749 47.5099 46.1426 47.6193 46.0393 47.7537C45.9359 47.8881 45.8641 48.044 45.8293 48.2099C45.7944 48.3759 45.7974 48.5475 45.838 48.7121L51.892 73.2431C51.9394 73.4358 52.0367 73.6126 52.1742 73.7557C52.3116 73.8987 52.4844 74.003 52.675 74.0581C52.8656 74.1132 53.0674 74.117 53.26 74.0693C53.4526 74.0215 53.6292 73.9239 53.772 73.7861L71.994 56.2231C72.1367 56.0856 72.2407 55.9128 72.2955 55.7223C72.3503 55.5318 72.3539 55.3302 72.3061 55.1378C72.2582 54.9455 72.1606 54.7691 72.0229 54.6264C71.8853 54.4837 71.7125 54.3798 71.522 54.3251L47.245 47.3571C47.1374 47.3261 47.0259 47.3113 46.914 47.3131ZM48.497 50.0641L69.019 55.9541L53.614 70.8001L48.497 50.0641Z" fill="white"/>
<path d="M40.9018 22.8091C40.7531 22.806 40.6053 22.8324 40.4668 22.8866C40.3283 22.9408 40.2019 23.0219 40.0948 23.1251L21.8728 40.6871C21.7301 40.8247 21.6261 40.9974 21.5713 41.1879C21.5165 41.3784 21.5129 41.58 21.5607 41.7724C21.6086 41.9648 21.7062 42.1412 21.8438 42.2838C21.9815 42.4265 22.1543 42.5304 22.3448 42.5851L46.6178 49.5541C46.8082 49.6088 47.0096 49.6125 47.2018 49.5648C47.394 49.5171 47.5703 49.4197 47.713 49.2823C47.8556 49.1449 47.9596 48.9724 48.0145 48.7821C48.0695 48.5918 48.0733 48.3904 48.0258 48.1981L41.9748 23.6681C41.9156 23.4266 41.7784 23.2114 41.5843 23.0559C41.3903 22.9004 41.1504 22.8143 40.9018 22.8091ZM40.2518 26.1091L45.3658 46.8451L24.8488 40.9551L40.2518 26.1091ZM89.4528 36.7931C89.3043 36.7902 89.1566 36.8166 89.0183 36.8708C88.88 36.925 88.7538 37.006 88.6468 37.1091L70.4228 54.6701C70.2798 54.8077 70.1756 54.9805 70.1207 55.1711C70.0658 55.3617 70.062 55.5635 70.1099 55.756C70.1577 55.9486 70.2555 56.1251 70.3933 56.2679C70.5311 56.4106 70.7041 56.5145 70.8948 56.5691L95.1688 63.5371C95.3592 63.5918 95.5605 63.5955 95.7528 63.5478C95.945 63.5001 96.1213 63.4027 96.264 63.2653C96.4066 63.1279 96.5106 62.9554 96.5655 62.7651C96.6205 62.5748 96.6243 62.3734 96.5768 62.1811L90.5268 37.6511C90.4674 37.4096 90.3299 37.1945 90.1357 37.0392C89.9415 36.8839 89.7014 36.798 89.4528 36.7931ZM88.8028 40.0931L93.9168 60.8301L73.3998 54.9401L88.8028 40.0941V40.0931ZM52.9438 71.8641C52.6668 71.8747 52.4034 71.9868 52.2038 72.1791L33.9818 89.7421C33.8391 89.8797 33.7351 90.0524 33.6803 90.2429C33.6255 90.4334 33.6219 90.635 33.6697 90.8274C33.7176 91.0198 33.8152 91.1962 33.9528 91.3388C34.0905 91.4815 34.2633 91.5854 34.4538 91.6401L58.7318 98.6081C58.922 98.6625 59.1231 98.666 59.3151 98.6183C59.5071 98.5705 59.6831 98.4731 59.8256 98.3359C59.9681 98.1987 60.072 98.0264 60.127 97.8364C60.182 97.6463 60.186 97.4452 60.1388 97.2531L54.0838 72.7221C54.0216 72.4697 53.8742 72.2465 53.6665 72.0902C53.4588 71.9339 53.2036 71.854 52.9438 71.8641ZM52.3618 75.1641L57.4798 95.9011L36.9578 90.0111L52.3618 75.1641Z" fill="white"/>
</svg>
