<svg xmlns="http://www.w3.org/2000/svg" fill="none" viewBox="2 0 20 15" id="Trpc--Streamline-Svg-Logos" height="24" width="24">
  <path fill="#fff" d="m16.505525 7.381075 2.97015 1.71475V12.52725l-2.97015 1.714725 -1.318525 -0.7625 -3.2062 1.850975 -3.186975 -1.840375 -1.3001 0.7519 -2.970175 -1.717625V9.095825l2.970175 -1.71475 2.97015 1.71475v3.428525l-0.898575 0.519625 2.4155 1.39485 2.4347 -1.405475 -0.88015 -0.509V9.095825l2.970175 -1.71475Zm-2.1982 2.6083v2.093025l1.8122 1.046v-2.093l-1.8122 -1.046025Zm4.396375 -0.002875L16.8915 11.0325v2.0959l1.8122 -1.0489v-2.093Zm-13.408175 0v2.093l1.8122 1.046025V11.0325l-1.8122 -1.046Zm4.396375 0 -1.8122 1.046v2.093025l1.8122 -1.046025v-2.093Zm6.813625 -1.71185 -1.8122 1.046025 1.8122 1.046975 1.8122 -1.046975 -1.8122 -1.046025Zm-9.0118 -0.0029 -1.8122 1.048925 1.8122 1.044075 1.8122 -1.044075 -1.8122 -1.048925Zm1.47735 -5.318875v0.89065l-2.748225 1.587375v2.68355l-0.77195 0.445825V4.985075l3.520175 -2.0322ZM11.94125 0.25l2.972075 1.7147425v0.9429575l3.5974 2.077375v3.553l-0.771975 -0.4458V5.4309l-2.825425 -1.631575v1.5949l-2.97015 1.71475 -2.970175 -1.71475V1.9647425L11.94125 0.25Zm-2.196275 2.6054v2.093l1.810275 1.046025v-2.092025l-1.810275 -1.047Zm4.39445 0 -1.810275 1.047v2.091075l1.810275 -1.045075v-2.093ZM11.94125 1.1416275l-1.810275 1.04602 1.810275 1.0460275 1.8122 -1.0460275 -1.8122 -1.04602Z" stroke-width="0.25"></path>
</svg>